<svg version="1.1" id="Layer_1" xmlns="http://www.w3.org/2000/svg" xmlns:xlink="http://www.w3.org/1999/xlink" x="0px" y="0px"
	 width="100%" viewBox="0 0 180 180" enable-background="new 0 0 180 180" xml:space="preserve">
<path fill="#000000" opacity="1.000000" stroke="none" 
	d="
M181.000000,12.000004 
	C181.000000,68.252968 181.000000,124.505928 181.000000,181.000000 
	C135.312729,181.000000 89.625023,181.000000 43.439957,180.649582 
	C45.254704,177.707169 47.578869,175.125793 49.876591,172.521118 
	C55.987923,165.593307 58.044674,156.841034 53.522869,148.924835 
	C52.765366,147.598709 52.420162,145.033432 53.183464,144.002640 
	C58.775871,136.450378 59.007881,128.187424 57.426556,119.443565 
	C57.248718,118.460220 58.518646,116.753487 59.565567,116.094421 
	C63.086021,113.878159 67.018547,112.277466 70.388680,109.873772 
	C73.088974,107.947845 74.811600,104.468880 77.648682,102.952255 
	C85.208717,98.910851 93.438873,96.077255 100.830025,91.778893 
	C107.898010,87.668449 114.601982,82.730904 120.790138,77.375938 
	C125.289116,73.482742 128.694077,68.047897 127.303780,61.637505 
	C126.023567,55.734680 127.377136,50.585152 132.187531,47.103664 
	C142.325729,39.766209 152.351166,32.272873 162.493683,24.941465 
	C168.593506,20.532267 174.826736,16.307602 181.000000,12.000004 
z"/>
<path fill="#000000" opacity="1.000000" stroke="none" 
	d="
M1.000000,79.000000 
	C1.000000,53.045574 1.000000,27.091145 1.000000,1.000000 
	C58.020824,1.000000 115.041756,1.000000 172.557892,1.367293 
	C170.555878,3.169997 168.117111,4.720654 165.551941,6.022129 
	C148.774948,14.534138 131.950958,22.953777 115.197243,31.511126 
	C112.799614,32.735775 111.260323,32.583641 109.055191,30.803858 
	C101.902679,25.031019 93.691910,22.318251 84.332642,21.928308 
	C66.581245,21.188719 50.735584,26.023214 36.185173,35.989071 
	C21.502470,46.045536 10.127151,58.669086 3.967264,75.632645 
	C3.491928,76.941650 2.012649,77.886101 1.000000,79.000000 
z"/>
<path fill="#3C444A" opacity="1.000000" stroke="none" 
	d="
M1.000000,79.468658 
	C2.012649,77.886101 3.491928,76.941650 3.967264,75.632645 
	C10.127151,58.669086 21.502470,46.045536 36.185173,35.989071 
	C50.735584,26.023214 66.581245,21.188719 84.332642,21.928308 
	C93.691910,22.318251 101.902679,25.031019 109.055191,30.803858 
	C111.260323,32.583641 112.799614,32.735775 115.197243,31.511126 
	C131.950958,22.953777 148.774948,14.534138 165.551941,6.022129 
	C168.117111,4.720654 170.555878,3.169997 173.026550,1.367293 
	C175.599503,1.000000 178.199020,1.000000 181.000000,1.000000 
	C181.000000,4.343195 181.000000,7.688642 181.000000,11.517048 
	C174.826736,16.307602 168.593506,20.532267 162.493683,24.941465 
	C152.351166,32.272873 142.325729,39.766209 132.187531,47.103664 
	C127.377136,50.585152 126.023567,55.734680 127.303780,61.637505 
	C128.694077,68.047897 125.289116,73.482742 120.790138,77.375938 
	C114.601982,82.730904 107.898010,87.668449 100.830025,91.778893 
	C93.438873,96.077255 85.208717,98.910851 77.648682,102.952255 
	C74.811600,104.468880 73.088974,107.947845 70.388680,109.873772 
	C67.018547,112.277466 63.086021,113.878159 59.565567,116.094421 
	C58.518646,116.753487 57.248718,118.460220 57.426556,119.443565 
	C59.007881,128.187424 58.775871,136.450378 53.183464,144.002640 
	C52.420162,145.033432 52.765366,147.598709 53.522869,148.924835 
	C58.044674,156.841034 55.987923,165.593307 49.876591,172.521118 
	C47.578869,175.125793 45.254704,177.707169 42.971298,180.649582 
	C42.555553,181.000000 42.111111,181.000000 41.382347,180.631439 
	C40.081879,178.035461 38.900230,175.867310 38.078056,173.570480 
	C34.401062,163.298325 26.191763,156.612122 18.832533,149.314667 
	C12.141771,142.680084 6.936572,135.315277 4.466266,126.085045 
	C4.048965,124.525818 2.191872,123.351929 1.000000,122.000000 
	C1.000000,107.979103 1.000000,93.958214 1.000000,79.468658 
M174.568542,6.265904 
	C174.350403,6.456348 174.136719,6.651683 173.259018,6.837109 
	C172.131119,7.470914 171.003204,8.104718 169.255951,8.871455 
	C168.124527,9.314917 166.993103,9.758378 165.118118,10.385973 
	C161.066528,12.645784 157.014923,14.905596 152.286499,17.441248 
	C152.111481,17.610733 151.936462,17.780216 151.076462,18.049444 
	C146.680771,20.596649 142.285095,23.143854 137.261215,25.849409 
	C137.068954,25.947720 136.876678,26.046028 136.013824,26.201603 
	C131.709717,28.676334 127.405624,31.151066 122.534859,33.916706 
	C122.338799,33.998203 122.142738,34.079700 121.258163,34.231003 
	C117.694244,35.951797 114.130325,37.672588 110.202972,38.729504 
	C106.299065,35.728458 102.766495,31.963291 98.428619,29.855246 
	C76.669617,19.281178 44.454239,32.339466 30.184082,46.788952 
	C29.888659,46.949406 29.660551,47.177246 28.870590,47.713974 
	C25.515545,51.534103 22.160500,55.354233 18.326054,59.483841 
	C17.567726,60.609215 16.809399,61.734585 15.584853,63.373886 
	C13.409564,67.412430 10.629815,71.244133 9.164680,75.525696 
	C3.145897,93.114334 2.127328,110.792366 10.847597,127.850380 
	C13.761148,133.549667 17.423092,139.133591 21.814360,143.751389 
	C29.566074,151.902954 38.629368,158.856369 42.647671,170.008133 
	C50.426609,164.641937 52.455433,155.550720 47.459305,147.964050 
	C44.933495,144.128586 45.125942,142.293076 48.529686,139.097382 
	C56.035149,132.050690 54.545784,118.380249 46.149574,114.200638 
	C44.813332,116.833618 43.691521,119.620476 42.071468,122.079025 
	C40.348221,124.694160 38.367367,127.219963 36.120258,129.393158 
	C31.068624,134.278641 27.953924,134.450607 22.253799,130.133484 
	C21.532484,123.218521 25.931581,118.881714 30.991186,116.171822 
	C40.898777,110.865379 51.349571,106.573135 61.747501,102.712357 
	C61.917007,104.715843 62.086517,106.719330 62.283726,109.050194 
	C68.542480,107.073761 69.766655,101.716736 73.156769,97.205482 
	C79.281097,94.713196 85.507637,92.442886 91.507515,89.680321 
	C102.473465,84.631180 112.639435,78.368034 119.877014,68.358696 
	C121.115677,66.645668 121.606140,64.391632 122.825958,61.467751 
	C116.932419,64.173500 112.676666,67.062843 108.027504,67.999489 
	C103.348419,68.942169 98.278130,67.943108 93.245575,66.975800 
	C94.892197,66.275581 96.541008,64.970146 98.185081,64.976089 
	C107.023743,65.008057 114.528137,62.158398 120.138000,55.235638 
	C121.187439,53.940601 121.158379,51.771595 121.687141,49.342850 
	C121.695641,48.899181 121.704140,48.455513 122.325516,47.748177 
	C123.542381,46.813202 124.759254,45.878227 126.530853,44.832203 
	C127.078415,44.339310 127.625984,43.846413 128.838150,43.124149 
	C132.571625,40.447063 136.305099,37.769974 140.698257,34.885540 
	C151.975052,27.116789 163.286026,19.396564 174.481293,11.512072 
	C175.746201,10.621239 176.358810,8.804202 177.304398,7.219177 
	C177.304398,7.219177 177.106918,7.188673 177.787598,7.192472 
	C177.900284,6.777019 178.012985,6.361565 177.796600,5.367206 
	C176.872696,5.514322 175.948792,5.661438 174.870987,5.869679 
	C174.870987,5.869679 174.932098,6.023583 174.568542,6.265904 
M36.711094,119.615692 
	C33.757961,122.154488 28.621702,123.005249 28.937193,128.071426 
	C29.557892,128.525085 30.178589,128.978745 30.799286,129.432404 
	C32.870068,126.315239 34.940853,123.198067 36.711094,119.615692 
M55.967293,113.047516 
	C55.388260,112.552101 54.809231,112.056694 54.230202,111.561287 
	C54.048531,112.108261 53.866859,112.655243 53.685184,113.202225 
	C54.441219,113.329994 55.197254,113.457764 55.967293,113.047516 
z"/>
<path fill="#000000" opacity="1.000000" stroke="none" 
	d="
M1.000000,122.468658 
	C2.191872,123.351929 4.048965,124.525818 4.466266,126.085045 
	C6.936572,135.315277 12.141771,142.680084 18.832533,149.314667 
	C26.191763,156.612122 34.401062,163.298325 38.078056,173.570480 
	C38.900230,175.867310 40.081879,178.035461 41.049011,180.631439 
	C27.725864,181.000000 14.451727,181.000000 1.000000,181.000000 
	C1.000000,161.646133 1.000000,142.291733 1.000000,122.468658 
z"/>
<path fill="#55BDCC" opacity="1.000000" stroke="none" 
	d="
M121.627029,50.005913 
	C121.158379,51.771595 121.187439,53.940601 120.138000,55.235638 
	C114.528137,62.158398 107.023743,65.008057 98.185081,64.976089 
	C96.541008,64.970146 94.892197,66.275581 92.865280,67.453583 
	C85.719421,67.783226 78.693031,66.373299 72.234055,67.708412 
	C46.203152,73.089203 29.975140,90.037170 20.807219,114.235725 
	C18.783251,119.577957 17.438446,125.517632 21.953684,130.711639 
	C27.953924,134.450607 31.068624,134.278641 36.120258,129.393158 
	C38.367367,127.219963 40.348221,124.694160 42.071468,122.079025 
	C43.691521,119.620476 44.813332,116.833618 46.149574,114.200638 
	C54.545784,118.380249 56.035149,132.050690 48.529686,139.097382 
	C45.125942,142.293076 44.933495,144.128586 47.459305,147.964050 
	C52.455433,155.550720 50.426609,164.641937 42.647671,170.008133 
	C38.629368,158.856369 29.566074,151.902954 21.814360,143.751389 
	C17.423092,139.133591 13.761148,133.549667 10.847597,127.850380 
	C2.127328,110.792366 3.145897,93.114334 9.164680,75.525696 
	C10.629815,71.244133 13.409564,67.412430 15.979742,63.422894 
	C17.900640,64.460991 19.341831,65.695297 21.010334,66.272461 
	C21.445444,66.422981 23.454437,64.192352 23.239241,63.634335 
	C22.667606,62.152084 21.314693,60.950981 20.185997,59.717220 
	C19.886211,59.389530 19.274143,59.347534 18.805454,59.174366 
	C22.160500,55.354233 25.515545,51.534103 29.306389,47.723961 
	C29.742188,47.733948 29.986366,47.993790 29.992905,48.362740 
	C30.834856,49.900799 31.670269,51.069916 32.505680,52.239029 
	C33.110149,51.754074 34.276024,51.176342 34.214077,50.801514 
	C34.026485,49.666359 33.486736,48.525150 32.827225,47.562328 
	C32.544495,47.149567 31.627180,47.171474 30.910358,46.904682 
	C30.822527,46.813477 30.646914,46.631020 30.646914,46.631020 
	C44.454239,32.339466 76.669617,19.281178 98.428619,29.855246 
	C102.766495,31.963291 106.299065,35.728458 110.172600,39.345161 
	C107.347176,43.628887 108.272797,46.796616 111.799522,50.056679 
	C110.120819,43.787899 114.663643,42.120770 118.442963,39.912289 
	C119.586922,39.243801 120.748314,38.605141 122.161034,38.053650 
	C123.585533,37.393421 124.750717,36.632355 126.169540,35.644577 
	C129.845306,33.413868 133.267426,31.409868 136.913925,29.705757 
	C138.105057,31.701389 139.071823,33.397137 140.038574,35.092884 
	C136.305099,37.769974 132.571625,40.447063 128.336273,43.069740 
	C127.250893,42.874050 126.667366,42.732769 126.083847,42.591484 
	C126.047935,43.375408 126.012032,44.159328 125.976120,44.943253 
	C124.759254,45.878227 123.542381,46.813202 121.897659,47.997726 
	C121.522209,48.833485 121.574615,49.419701 121.627029,50.005913 
M79.023788,52.353745 
	C78.330338,54.966686 78.882980,57.253548 81.779526,57.605259 
	C83.225533,57.780838 85.764183,56.855995 86.165581,55.802731 
	C86.707390,54.381065 85.978012,51.025200 85.243408,50.853344 
	C83.431053,50.429359 81.304710,51.347477 79.023788,52.353745 
M66.992447,34.995995 
	C68.128479,33.820602 69.264511,32.645206 70.400543,31.469812 
	C69.482788,31.012835 68.565033,30.555855 67.647278,30.098877 
	C67.251633,31.639265 66.855988,33.179653 66.992447,34.995995 
z"/>
<path fill="#F7FAFB" opacity="1.000000" stroke="none" 
	d="
M22.103741,130.422562 
	C17.438446,125.517632 18.783251,119.577957 20.807219,114.235725 
	C29.975140,90.037170 46.203152,73.089203 72.234055,67.708412 
	C78.693031,66.373299 85.719421,67.783226 92.932129,67.863113 
	C98.278130,67.943108 103.348419,68.942169 108.027504,67.999489 
	C112.676666,67.062843 116.932419,64.173500 122.825958,61.467751 
	C121.606140,64.391632 121.115677,66.645668 119.877014,68.358696 
	C112.639435,78.368034 102.473465,84.631180 91.507515,89.680321 
	C85.507637,92.442886 79.281097,94.713196 72.803902,96.895050 
	C73.676910,90.520195 74.902786,84.455772 76.232162,77.879288 
	C68.913940,78.512421 62.738762,81.299561 57.585068,86.100983 
	C56.801453,86.831032 57.391644,89.436920 57.857090,91.025536 
	C58.929657,94.686295 60.316307,98.255028 61.575523,101.861099 
	C51.349571,106.573135 40.898777,110.865379 30.991186,116.171822 
	C25.931581,118.881714 21.532484,123.218521 22.103741,130.422562 
z"/>
<path fill="#5CBFCD" opacity="1.000000" stroke="none" 
	d="
M61.661514,102.286728 
	C60.316307,98.255028 58.929657,94.686295 57.857090,91.025536 
	C57.391644,89.436920 56.801453,86.831032 57.585068,86.100983 
	C62.738762,81.299561 68.913940,78.512421 76.232162,77.879288 
	C74.902786,84.455772 73.676910,90.520195 72.409882,97.059555 
	C69.766655,101.716736 68.542480,107.073761 62.283726,109.050194 
	C62.086517,106.719330 61.917007,104.715843 61.661514,102.286728 
z"/>
<path fill="#55B9C7" opacity="1.000000" stroke="none" 
	d="
M140.368408,34.989212 
	C139.071823,33.397137 138.105057,31.701389 136.969452,29.382374 
	C136.761856,27.887518 136.723129,27.015928 136.684387,26.144339 
	C136.876678,26.046028 137.068954,25.947720 137.896683,25.915676 
	C143.363098,26.666155 150.449844,22.363403 151.761459,17.949701 
	C151.936462,17.780216 152.111481,17.610733 152.944717,17.535587 
	C157.787994,15.720634 161.973038,13.811345 166.400574,11.893713 
	C167.720459,10.836421 168.797882,9.787471 169.875305,8.738522 
	C171.003204,8.104718 172.131119,7.470914 173.731293,6.831923 
	C174.446411,6.559017 174.689255,6.291299 174.932098,6.023582 
	C174.932098,6.023583 174.870987,5.869679 175.228271,6.042325 
	C176.148331,6.615532 176.711105,7.016092 177.273880,7.416655 
	C176.358810,8.804202 175.746201,10.621239 174.481293,11.512072 
	C163.286026,19.396564 151.975052,27.116789 140.368408,34.989212 
z"/>
<path fill="#D8EDF0" opacity="1.000000" stroke="none" 
	d="
M121.901718,37.952812 
	C120.748314,38.605141 119.586922,39.243801 118.442963,39.912289 
	C114.663643,42.120770 110.120819,43.787899 111.799522,50.056679 
	C108.272797,46.796616 107.347176,43.628887 110.354317,39.677101 
	C114.130325,37.672588 117.694244,35.951797 121.603073,34.575569 
	C121.932556,35.931026 121.917137,36.941917 121.901718,37.952812 
z"/>
<path fill="#CEE5E8" opacity="1.000000" stroke="none" 
	d="
M136.349106,26.172970 
	C136.723129,27.015928 136.761856,27.887518 136.745087,29.082489 
	C133.267426,31.409868 129.845306,33.413868 125.883835,35.542557 
	C124.596840,34.986767 123.849182,34.306282 123.101524,33.625797 
	C127.405624,31.151066 131.709717,28.676334 136.349106,26.172970 
z"/>
<path fill="#C6DDE0" opacity="1.000000" stroke="none" 
	d="
M151.418961,17.999573 
	C150.449844,22.363403 143.363098,26.666155 138.210785,25.836500 
	C142.285095,23.143854 146.680771,20.596649 151.418961,17.999573 
z"/>
<path fill="#2EACB1" opacity="1.000000" stroke="none" 
	d="
M18.565754,59.329102 
	C19.274143,59.347534 19.886211,59.389530 20.185997,59.717220 
	C21.314693,60.950981 22.667606,62.152084 23.239241,63.634335 
	C23.454437,64.192352 21.445444,66.422981 21.010334,66.272461 
	C19.341831,65.695297 17.900640,64.460991 16.212851,63.165928 
	C16.809399,61.734585 17.567726,60.609215 18.565754,59.329102 
z"/>
<path fill="#000000" opacity="1.000000" stroke="none" 
	d="
M36.861366,119.848297 
	C34.940853,123.198067 32.870068,126.315239 30.799286,129.432404 
	C30.178589,128.978745 29.557892,128.525085 28.937193,128.071426 
	C28.621702,123.005249 33.757961,122.154488 36.861366,119.848297 
z"/>
<path fill="#B3D4D9" opacity="1.000000" stroke="none" 
	d="
M166.158096,11.902055 
	C161.973038,13.811345 157.787994,15.720634 153.283142,17.397667 
	C157.014923,14.905596 161.066528,12.645784 165.557312,10.720121 
	C166.050354,11.336864 166.104218,11.619459 166.158096,11.902055 
z"/>
<path fill="#55B9C7" opacity="1.000000" stroke="none" 
	d="
M122.818192,33.771252 
	C123.849182,34.306282 124.596840,34.986767 125.630203,35.769268 
	C124.750717,36.632355 123.585533,37.393421 122.161034,38.053650 
	C121.917137,36.941917 121.932556,35.931026 121.947327,34.540665 
	C122.142738,34.079700 122.338799,33.998203 122.818192,33.771252 
z"/>
<path fill="#59AFBB" opacity="1.000000" stroke="none" 
	d="
M166.400574,11.893713 
	C166.104218,11.619459 166.050354,11.336864 165.929077,10.628054 
	C166.993103,9.758378 168.124527,9.314917 169.565628,8.804988 
	C168.797882,9.787471 167.720459,10.836421 166.400574,11.893713 
z"/>
<path fill="#55B9C7" opacity="1.000000" stroke="none" 
	d="
M126.253487,44.887726 
	C126.012032,44.159328 126.047935,43.375408 126.083847,42.591484 
	C126.667366,42.732769 127.250893,42.874050 128.003983,43.184425 
	C127.625984,43.846413 127.078415,44.339310 126.253487,44.887726 
z"/>
<path fill="#000000" opacity="1.000000" stroke="none" 
	d="
M55.960293,113.316528 
	C55.197254,113.457764 54.441219,113.329994 53.685188,113.202225 
	C53.866859,112.655243 54.048531,112.108261 54.230202,111.561287 
	C54.809231,112.056694 55.388260,112.552101 55.960293,113.316528 
z"/>
<path fill="#55B9C7" opacity="1.000000" stroke="none" 
	d="
M121.657089,49.674381 
	C121.574615,49.419701 121.522209,48.833485 121.591217,48.129559 
	C121.704140,48.455513 121.695641,48.899181 121.657089,49.674381 
z"/>
<path fill="#59AFBB" opacity="1.000000" stroke="none" 
	d="
M177.289139,7.317915 
	C176.711105,7.016092 176.148331,6.615532 175.305222,6.011763 
	C175.948792,5.661438 176.872696,5.514322 177.789780,5.862275 
	C177.557602,6.634453 177.332260,6.911561 177.106918,7.188672 
	C177.106918,7.188673 177.304398,7.219177 177.289139,7.317915 
z"/>
<path fill="#59AFBB" opacity="1.000000" stroke="none" 
	d="
M174.750320,6.144743 
	C174.689255,6.291299 174.446411,6.559017 174.065536,6.839323 
	C174.136719,6.651683 174.350403,6.456348 174.750320,6.144743 
z"/>
<path fill="#55BDCC" opacity="1.000000" stroke="none" 
	d="
M29.620972,47.603210 
	C29.660551,47.177246 29.888659,46.949406 30.415497,46.709984 
	C30.646914,46.631020 30.822527,46.813477 30.741491,47.070770 
	C30.436775,47.551006 30.212078,47.772911 29.986366,47.993790 
	C29.986366,47.993790 29.742188,47.733948 29.620972,47.603210 
z"/>
<path fill="#55B9C7" opacity="1.000000" stroke="none" 
	d="
M177.447266,7.190571 
	C177.332260,6.911561 177.557602,6.634453 177.954315,6.151729 
	C178.012985,6.361565 177.900284,6.777019 177.447266,7.190571 
z"/>
<path fill="#3C4B52" opacity="1.000000" stroke="none" 
	d="
M79.164192,52.039909 
	C81.304710,51.347477 83.431053,50.429359 85.243408,50.853344 
	C85.978012,51.025200 86.707390,54.381065 86.165581,55.802731 
	C85.764183,56.855995 83.225533,57.780838 81.779526,57.605259 
	C78.882980,57.253548 78.330338,54.966686 79.164192,52.039909 
z"/>
<path fill="#2EAFB3" opacity="1.000000" stroke="none" 
	d="
M66.726395,34.858017 
	C66.855988,33.179653 67.251633,31.639265 67.647278,30.098877 
	C68.565033,30.555855 69.482788,31.012835 70.400543,31.469814 
	C69.264511,32.645206 68.128479,33.820602 66.726395,34.858017 
z"/>
<path fill="#2BAEB1" opacity="1.000000" stroke="none" 
	d="
M29.992905,48.362740 
	C30.212078,47.772911 30.436775,47.551006 30.829323,47.161980 
	C31.627180,47.171474 32.544495,47.149567 32.827225,47.562328 
	C33.486736,48.525150 34.026485,49.666359 34.214077,50.801514 
	C34.276024,51.176342 33.110149,51.754074 32.505680,52.239029 
	C31.670269,51.069916 30.834856,49.900799 29.992905,48.362740 
z"/>
</svg>